<?xml version="1.0" encoding="UTF-8" standalone="no"?>
<svg
   xmlns:dc="http://purl.org/dc/elements/1.1/"
   xmlns:cc="http://creativecommons.org/ns#"
   xmlns:rdf="http://www.w3.org/1999/02/22-rdf-syntax-ns#"
   xmlns:svg="http://www.w3.org/2000/svg"
   xmlns="http://www.w3.org/2000/svg"
   width="508.41409"
   height="508.41409"
   viewBox="0 0 134.51789 134.5179"
   version="1.1"
   id="svg1149">
  <defs
     id="defs1143">
    <clipPath
       clipPathUnits="userSpaceOnUse"
       id="clipPath1816">
      <rect
         y="21.011942"
         x="22.514208"
         height="134.5179"
         width="134.5179"
         id="rect1818"
         style="opacity:0.1;fill:#000000;stroke:#000000;stroke-width:1.05834;paint-order:markers fill stroke;stop-color:#000000" />
    </clipPath>
    <mask
       id="mask1424"
       maskUnits="userSpaceOnUse">
      <rect
         y="0"
         x="-2.7902168e-14"
         height="134.5179"
         width="134.5179"
         id="rect1426"
         style="opacity:1;fill:#aad400;stroke:none;stroke-width:1.05833;paint-order:markers fill stroke;stop-color:#000000" />
    </mask>
    <clipPath
       clipPathUnits="userSpaceOnUse"
       id="clipPath850">
      <rect
         style="opacity:1;fill:#aad400;stroke-width:1.05833;paint-order:markers fill stroke;stop-color:#000000"
         id="rect852"
         width="134.5179"
         height="134.5179"
         x="-2.5400653e-14"
         y="1.7863002e-14" />
    </clipPath>
  </defs>
  <metadata
     id="metadata1146">
    <rdf:RDF>
      <cc:Work
         rdf:about="">
        <dc:format>image/svg+xml</dc:format>
        <dc:type
           rdf:resource="http://purl.org/dc/dcmitype/StillImage" />
        <dc:title></dc:title>
      </cc:Work>
    </rdf:RDF>
  </metadata>
  <g
     id="g846"
     clip-path="url(#clipPath850)"
     style="opacity:0.15">
    <path
       id="path856-6"
       style="opacity:1;fill:none;stroke:#ffffff;stroke-width:1.05833;paint-order:markers fill stroke;stop-color:#000000"
       d="m 2e-6,134.5179 6.735163,6.73517 89.652457,-89.652464 c 1.79347,-1.793472 1.73965,-4.755074 -0.1202,-6.614942 -1.85986,-1.859873 -4.82148,-1.913698 -6.61496,-0.120222 l -0.0263,0.02628 z" />
    <path
       id="rect833-2"
       style="opacity:1;fill:none;stroke:#ffffff;stroke-width:1.05833;paint-order:markers fill stroke;stop-color:#000000"
       d="m 93.772162,40.745739 c 1.68892,0.230168 3.2718,1.019751 4.49363,2.241549 1.22179,1.22183 2.011368,2.804703 2.241538,4.493614 L 141.25307,6.735163 134.51791,0 Z" />
    <path
       id="path856-6-7"
       style="opacity:1;fill:none;stroke:#ffffff;stroke-width:1.05833;paint-order:markers fill stroke;stop-color:#000000"
       d="m 10.851093,145.369 15.154182,15.15419 61.009227,-61.009232 c 3.82113,-3.82113 3.52638,-10.31116 -0.65832,-14.49586 -4.18471,-4.1847 -10.674733,-4.47946 -14.495867,-0.65832 z" />
    <path
       id="rect833-2-0"
       style="opacity:1;fill:none;stroke:#ffffff;stroke-width:1.05833;paint-order:markers fill stroke;stop-color:#000000"
       d="m 80.637672,75.582417 c 3.71297,0.604967 7.22709,2.428935 9.97623,5.177971 2.74903,2.74913 4.57299,6.26325 5.17796,9.97621 L 160.52318,26.005275 145.369,10.851093 Z" />
  </g>
</svg>
