<?xml version="1.0" encoding="UTF-8" standalone="no"?>
<svg
   xmlns:dc="http://purl.org/dc/elements/1.1/"
   xmlns:cc="http://creativecommons.org/ns#"
   xmlns:rdf="http://www.w3.org/1999/02/22-rdf-syntax-ns#"
   xmlns:svg="http://www.w3.org/2000/svg"
   xmlns="http://www.w3.org/2000/svg"
   xmlns:sodipodi="http://sodipodi.sourceforge.net/DTD/sodipodi-0.dtd"
   xmlns:inkscape="http://www.inkscape.org/namespaces/inkscape"
   sodipodi:docname="nicozerpa.svg"
   inkscape:version="1.0 (4035a4fb49, 2020-05-01)"
   inkscape:export-ydpi="684.21552"
   inkscape:export-xdpi="684.21552"
   inkscape:export-filename="/home/nicolas/nicozerpa.png"
   id="svg2920"
   version="1.1"
   viewBox="0 0 59.225671 22.273683"
   height="84.183998"
   width="223.84506">
  <defs
     id="defs2914" />
  <sodipodi:namedview
     inkscape:window-maximized="1"
     inkscape:window-y="0"
     inkscape:window-x="0"
     inkscape:window-height="1008"
     inkscape:window-width="1920"
     fit-margin-bottom="0"
     fit-margin-right="0"
     fit-margin-left="0"
     fit-margin-top="0"
     units="px"
     showgrid="false"
     inkscape:document-rotation="0"
     inkscape:current-layer="layer1"
     inkscape:document-units="px"
     inkscape:cy="60.195997"
     inkscape:cx="136.91919"
     inkscape:zoom="3.959798"
     inkscape:pageshadow="2"
     inkscape:pageopacity="0.0"
     borderopacity="1.0"
     bordercolor="#666666"
     pagecolor="#ffffff"
     id="base" />
  <metadata
     id="metadata2917">
    <rdf:RDF>
      <cc:Work
         rdf:about="">
        <dc:format>image/svg+xml</dc:format>
        <dc:type
           rdf:resource="http://purl.org/dc/dcmitype/StillImage" />
        <dc:title></dc:title>
      </cc:Work>
    </rdf:RDF>
  </metadata>
  <g
     transform="translate(-9.0886381,-74.666291)"
     id="layer1"
     inkscape:groupmode="layer"
     inkscape:label="Layer 1">
    <g
       style="stroke-width:0.999995"
       transform="matrix(1.0000171,0,0,1.0000171,2.4739412,68.051678)"
       id="g3465">
      <path
         id="rect3366"
         style="fill:#495867;fill-opacity:1;stroke:none;stroke-width:0.999995;paint-order:markers fill stroke;stop-color:#000000"
         d="m 85.867188,25 c 16.093612,7.190083 27.316012,23.323807 27.316402,42.089844 4.8e-4,18.698492 -11.14048,34.784546 -27.140621,42.013676 H 206.75195 v 0.0801 c 15.03837,3e-5 28.93434,-8.02306 36.45313,-21.046871 7.51906,-13.023231 7.51906,-29.068566 0,-42.091797 C 235.6858,33.021859 221.78992,24.999568 206.75195,25 Z"
         transform="scale(0.26458)"
         sodipodi:nodetypes="ccccccccc" />
      <g
         style="stroke-width:0.999995"
         id="g3410">
        <g
           style="stroke-width:0.999995"
           id="g1746">
          <rect
             style="fill:#f0c987;fill-opacity:1;stroke-width:0.0793746;stroke-linejoin:round;paint-order:markers fill stroke;stop-color:#000000"
             id="rect1140"
             width="13.598306"
             height="13.562231"
             x="10.818242"
             y="11.301331" />
          <path
             sodipodi:nodetypes="cccccccccsccsssccccccccccsccccc"
             d="M 17.723467,6.6145914 C 11.583826,6.629805 6.6146938,11.6112 6.6145838,17.750862 6.6144258,23.901607 11.60063,28.88781 17.751372,28.887651 23.901914,28.887523 28.887799,23.901404 28.887643,17.750862 28.887513,11.600522 23.90171,6.6147184 17.751372,6.6145914 c -0.0093,-1.06e-5 -0.0186,-1.06e-5 -0.02791,0 z m -3.994071,4.7847196 c 0.324014,-0.0051 0.641863,0.08883 0.911053,0.269235 l 3.04891,1.605071 c 0.795436,0.399762 1.108496,1.3741 0.69478,2.162371 -0.413713,0.788268 -1.393415,1.084114 -2.174274,0.656577 l -0.864031,-0.453718 v 6.872965 c 0,0.879322 -0.71283,1.592086 -1.592152,1.592086 -0.879321,0 -1.592151,-0.712764 -1.592151,-1.592086 v -9.503813 c -1.78e-4,-0.03585 7.94e-4,-0.0717 0.0031,-0.107487 0.04723,-0.833305 0.730219,-1.488548 1.564765,-1.501201 z m 8.008337,8.8e-5 c 0.883174,-0.0064 1.602693,0.707318 1.603478,1.590513 v 9.50433 c 1.67e-4,0.03568 -7.93e-4,0.07136 -0.0031,0.106971 -0.04725,0.833499 -0.730533,1.488814 -1.565278,1.5012 -0.323784,0.0052 -0.641435,-0.08859 -0.91054,-0.268717 l -3.04891,-1.60507 c -0.795372,-0.399799 -1.108379,-1.374091 -0.694685,-2.162324 0.413698,-0.788231 1.393331,-1.084093 2.174182,-0.656627 l 0.864029,0.453721 v -6.873484 c 0,-0.878358 0.699807,-1.590662 1.580819,-1.590513 z"
             style="fill:#db4c40;fill-opacity:1;stroke:none;stroke-width:0.264582;stroke-miterlimit:4;stroke-dasharray:none;stroke-dashoffset:0;stroke-opacity:1;paint-order:markers fill stroke"
             id="path1002-6-2" />
        </g>
      </g>
      <g
         style="font-style:normal;font-variant:normal;font-weight:bold;font-stretch:normal;font-size:10.0593px;line-height:0.7;font-family:Cantarell;-inkscape-font-specification:'Cantarell, Bold';font-variant-ligatures:normal;font-variant-caps:normal;font-variant-numeric:normal;font-variant-east-asian:normal;letter-spacing:-0.24726px;word-spacing:0px;fill:#f2f2f2;fill-opacity:1;stroke:none;stroke-width:0.264582"
         id="text1111"
         aria-label="nico zerpa"
         transform="translate(-14.992737,46.890947)">
        <path
           id="path1216"
           style="font-style:normal;font-variant:normal;font-weight:bold;font-stretch:normal;font-size:10.0593px;font-family:Metropolis;-inkscape-font-specification:'Metropolis Bold';font-variant-ligatures:normal;font-variant-caps:normal;font-variant-numeric:normal;font-variant-east-asian:normal;fill:#f2f2f2;fill-opacity:1;stroke-width:0.264582"
           d="m 51.440314,-35.205491 c -0.673973,0 -1.257412,0.301779 -1.569251,0.764507 v -0.643795 h -1.468658 v 5.200658 h 1.468658 v -3.078146 c 0,-0.563321 0.482847,-1.00593 1.096464,-1.00593 0.583439,0 0.985811,0.442609 0.985811,1.086405 v 2.997671 h 1.408303 v -3.30951 c 0,-1.186997 -0.794685,-2.01186 -1.921327,-2.01186 z" />
        <path
           id="path1218"
           style="font-style:normal;font-variant:normal;font-weight:bold;font-stretch:normal;font-size:10.0593px;font-family:Metropolis;-inkscape-font-specification:'Metropolis Bold';font-variant-ligatures:normal;font-variant-caps:normal;font-variant-numeric:normal;font-variant-east-asian:normal;fill:#f2f2f2;fill-opacity:1;stroke-width:0.264582"
           d="m 54.894864,-35.79899 c 0.43255,0 0.794685,-0.362134 0.794685,-0.804744 0,-0.412431 -0.362135,-0.784625 -0.794685,-0.784625 -0.452668,0 -0.804744,0.372194 -0.804744,0.784625 0,0.44261 0.352076,0.804744 0.804744,0.804744 z m -0.744388,5.914869 h 1.468658 v -5.200658 h -1.468658 z" />
        <path
           id="path1220"
           style="font-style:normal;font-variant:normal;font-weight:bold;font-stretch:normal;font-size:10.0593px;font-family:Metropolis;-inkscape-font-specification:'Metropolis Bold';font-variant-ligatures:normal;font-variant-caps:normal;font-variant-numeric:normal;font-variant-east-asian:normal;fill:#f2f2f2;fill-opacity:1;stroke-width:0.264582"
           d="m 59.023389,-29.763409 c 0.8651,0 1.57931,-0.352076 2.082275,-0.915397 l -0.975752,-0.824862 c -0.261542,0.301779 -0.684033,0.502965 -1.096464,0.502965 -0.764507,0 -1.408302,-0.684033 -1.408302,-1.498836 0,-0.794685 0.643795,-1.468658 1.408302,-1.468658 0.402372,0 0.814803,0.191127 1.066286,0.482847 l 0.975752,-0.834922 c -0.492906,-0.543203 -1.197057,-0.885219 -2.031979,-0.885219 -1.549132,0 -2.846782,1.237294 -2.846782,2.716011 0,1.478717 1.29765,2.726071 2.826664,2.726071 z" />
        <path
           id="path1222"
           style="font-style:normal;font-variant:normal;font-weight:bold;font-stretch:normal;font-size:10.0593px;font-family:Metropolis;-inkscape-font-specification:'Metropolis Bold';font-variant-ligatures:normal;font-variant-caps:normal;font-variant-numeric:normal;font-variant-east-asian:normal;fill:#f2f2f2;fill-opacity:1;stroke-width:0.264582"
           d="m 64.117605,-29.763409 c 1.559192,0 2.836723,-1.227235 2.836723,-2.726071 0,-1.498836 -1.277531,-2.716011 -2.836723,-2.716011 -1.559191,0 -2.836723,1.217175 -2.836723,2.716011 0,1.498836 1.277532,2.726071 2.836723,2.726071 z m 0,-1.237294 c -0.784625,0 -1.428421,-0.673973 -1.428421,-1.488777 0,-0.814803 0.643796,-1.478717 1.428421,-1.478717 0.784626,0 1.428421,0.663914 1.428421,1.478717 0,0.814804 -0.643795,1.488777 -1.428421,1.488777 z" />
        <path
           id="path1224"
           style="font-style:normal;font-variant:normal;font-weight:bold;font-stretch:normal;font-size:10.0593px;font-family:Metropolis;-inkscape-font-specification:'Metropolis Bold';font-variant-ligatures:normal;font-variant-caps:normal;font-variant-numeric:normal;font-variant-east-asian:normal;fill:#f2f2f2;fill-opacity:1;stroke-width:0.264582"
           d="m 48.201219,-22.621432 h 4.546804 v -1.247354 h -2.635536 l 2.605358,-2.917197 0.01006,-1.036108 h -4.45627 v 1.247354 h 2.545003 l -2.615419,2.917197 z" />
        <path
           id="path1226"
           style="font-style:normal;font-variant:normal;font-weight:bold;font-stretch:normal;font-size:10.0593px;font-family:Metropolis;-inkscape-font-specification:'Metropolis Bold';font-variant-ligatures:normal;font-variant-caps:normal;font-variant-numeric:normal;font-variant-east-asian:normal;fill:#f2f2f2;fill-opacity:1;stroke-width:0.264582"
           d="m 55.880679,-23.637422 c -0.714211,0 -1.207116,-0.492905 -1.337887,-1.197057 h 3.923127 c 0,-1.931385 -0.985812,-3.108323 -2.615418,-3.108323 -1.518955,0 -2.705952,1.136701 -2.705952,2.705951 0,1.599429 1.237294,2.73613 2.786426,2.73613 0.764507,0 1.659785,-0.321897 2.122512,-0.804744 l -0.824862,-0.844981 c -0.331957,0.301779 -0.875159,0.513024 -1.347946,0.513024 z m -0.02012,-3.168679 c 0.663914,0 1.076345,0.452668 1.197057,1.096463 H 54.55285 c 0.160949,-0.663913 0.653854,-1.096463 1.307709,-1.096463 z" />
        <path
           id="path1228"
           style="font-style:normal;font-variant:normal;font-weight:bold;font-stretch:normal;font-size:10.0593px;font-family:Metropolis;-inkscape-font-specification:'Metropolis Bold';font-variant-ligatures:normal;font-variant-caps:normal;font-variant-numeric:normal;font-variant-east-asian:normal;fill:#f2f2f2;fill-opacity:1;stroke-width:0.264582"
           d="m 60.461866,-26.846339 v -0.975752 h -1.468658 v 5.200659 h 1.468658 v -2.484648 c 0,-0.975752 0.694091,-1.599428 1.780496,-1.599428 v -1.237294 c -0.794685,0 -1.43848,0.42249 -1.780496,1.096463 z" />
        <path
           id="path1230"
           style="font-style:normal;font-variant:normal;font-weight:bold;font-stretch:normal;font-size:10.0593px;font-family:Metropolis;-inkscape-font-specification:'Metropolis Bold';font-variant-ligatures:normal;font-variant-caps:normal;font-variant-numeric:normal;font-variant-east-asian:normal;fill:#f2f2f2;fill-opacity:1;stroke-width:0.264582"
           d="m 66.05905,-27.942802 c -0.72427,0 -1.337887,0.321897 -1.750318,0.85504 v -0.734329 h -1.468658 v 6.930858 h 1.468658 v -2.464528 c 0.412431,0.533143 1.026048,0.85504 1.750318,0.85504 1.388184,0 2.384054,-1.126641 2.384054,-2.72607 0,-1.58937 -0.99587,-2.716011 -2.384054,-2.716011 z m -0.422491,4.204787 c -0.784625,0 -1.327827,-0.613617 -1.327827,-1.488776 0,-0.8651 0.543202,-1.478717 1.327827,-1.478717 0.804744,0 1.378125,0.613617 1.378125,1.478717 0,0.875159 -0.573381,1.488776 -1.378125,1.488776 z" />
        <path
           id="path1232"
           style="font-style:normal;font-variant:normal;font-weight:bold;font-stretch:normal;font-size:10.0593px;font-family:Metropolis;-inkscape-font-specification:'Metropolis Bold';font-variant-ligatures:normal;font-variant-caps:normal;font-variant-numeric:normal;font-variant-east-asian:normal;fill:#f2f2f2;fill-opacity:1;stroke-width:0.264582"
           d="m 71.22368,-27.942802 c -0.72427,0 -1.43848,0.201186 -2.172809,0.57338 l 0.492906,0.975752 c 0.412431,-0.211245 0.8651,-0.372194 1.347946,-0.372194 0.855041,0 1.207116,0.482846 1.207116,1.036108 v 0.110652 c -0.442609,-0.181067 -0.915396,-0.271601 -1.337887,-0.271601 -1.197057,0 -2.15269,0.704151 -2.15269,1.7302 0,0.99587 0.844981,1.659784 1.951504,1.659784 0.57338,0 1.166879,-0.231364 1.539073,-0.643795 v 0.523084 H 73.5172 v -3.108324 c 0,-1.358006 -0.935515,-2.213046 -2.29352,-2.213046 z m -0.331957,4.426092 c -0.502965,0 -0.885218,-0.261542 -0.885218,-0.684033 0,-0.42249 0.432549,-0.734329 0.965692,-0.734329 0.402372,0 0.794685,0.07042 1.126642,0.201186 v 0.472788 c -0.110652,0.482846 -0.643795,0.744388 -1.207116,0.744388 z" />
      </g>
    </g>
  </g>
</svg>
